<svg width="24" height="24" viewBox="0 0 24 24" fill="none" xmlns="http://www.w3.org/2000/svg">
<path d="M22.2656 9.77808C22.2423 9.67324 22.1968 9.57462 22.1321 9.4889C22.0674 9.40317 21.985 9.33235 21.8906 9.2812L19.6593 8.0437C19.5397 7.80117 19.4051 7.56633 19.2562 7.34058L19.3031 4.79058C19.3039 4.68362 19.2827 4.57764 19.2408 4.47924C19.1989 4.38085 19.1371 4.29215 19.0593 4.2187C17.9484 3.21142 16.6345 2.4538 15.2062 1.99683C15.1036 1.96484 14.9954 1.95499 14.8888 1.96792C14.7821 1.98085 14.6794 2.01626 14.5875 2.07183L12.4031 3.38433C12.1312 3.37495 11.8687 3.37495 11.5968 3.38433L9.41245 2.07183C9.32049 2.01626 9.21779 1.98085 9.11112 1.96792C9.00446 1.95499 8.89627 1.96484 8.7937 1.99683C7.36351 2.45415 6.04911 3.21529 4.94057 4.22808C4.86214 4.299 4.79981 4.3859 4.75777 4.48292C4.71572 4.57995 4.69494 4.68485 4.69682 4.79058L4.7437 7.34058C4.5937 7.56558 4.46245 7.79995 4.3312 8.0437L2.09995 9.2812C2.00688 9.33288 1.92604 9.40402 1.86294 9.48976C1.79985 9.57551 1.75598 9.67385 1.73432 9.77808C1.41554 11.2422 1.41554 12.7577 1.73432 14.2218C1.75761 14.3267 1.80314 14.4253 1.86784 14.511C1.93254 14.5967 2.01489 14.6676 2.10932 14.7187L4.34057 15.9562C4.46019 16.1987 4.59482 16.4336 4.7437 16.6593L4.69682 19.2093C4.69597 19.3163 4.71717 19.4223 4.75911 19.5207C4.80105 19.6191 4.86282 19.7078 4.94057 19.7812C6.05155 20.7885 7.3654 21.5461 8.7937 22.0031C8.89627 22.0351 9.00446 22.0449 9.11112 22.032C9.21779 22.0191 9.32049 21.9836 9.41245 21.9281L11.5968 20.6156H12.4031L14.5968 21.9281C14.7109 22.0031 14.8447 22.0422 14.9812 22.0406C15.0574 22.0373 15.133 22.0247 15.2062 22.0031C16.6364 21.5458 17.9508 20.7846 19.0593 19.7718C19.1378 19.7009 19.2001 19.614 19.2421 19.517C19.2842 19.42 19.305 19.3151 19.3031 19.2093L19.2562 16.6593C19.4062 16.4343 19.5375 16.2 19.6687 15.9562L21.9 14.7187C21.993 14.667 22.0739 14.5959 22.137 14.5101C22.2001 14.4244 22.2439 14.3261 22.2656 14.2218C22.5844 12.7577 22.5844 11.2422 22.2656 9.77808ZM12 16.125C11.1841 16.125 10.3866 15.883 9.70822 15.4298C9.02987 14.9765 8.50116 14.3323 8.18895 13.5785C7.87674 12.8248 7.79505 11.9954 7.95421 11.1952C8.11337 10.395 8.50624 9.66003 9.08313 9.08314C9.66003 8.50625 10.395 8.11338 11.1952 7.95421C11.9954 7.79505 12.8248 7.87674 13.5785 8.18895C14.3323 8.50116 14.9765 9.02987 15.4298 9.70823C15.883 10.3866 16.125 11.1841 16.125 12C16.125 13.094 15.6904 14.1432 14.9168 14.9168C14.1432 15.6904 13.094 16.125 12 16.125Z" fill="#471515"/>
</svg>
